<svg width="24" height="25" viewBox="0 0 24 25" fill="none" xmlns="http://www.w3.org/2000/svg">
<path d="M22.46 6.1629C21.69 6.5129 20.86 6.7429 20 6.8529C20.88 6.3229 21.56 5.4829 21.88 4.4729C21.05 4.9729 20.13 5.3229 19.16 5.5229C18.37 4.6629 17.26 4.1629 16 4.1629C13.65 4.1629 11.73 6.0829 11.73 8.4529C11.73 8.7929 11.77 9.1229 11.84 9.4329C8.28004 9.2529 5.11004 7.5429 3.00004 4.9529C2.63004 5.5829 2.42004 6.3229 2.42004 7.1029C2.42004 8.5929 3.17004 9.9129 4.33004 10.6629C3.62004 10.6629 2.96004 10.4629 2.38004 10.1629V10.1929C2.38004 12.2729 3.86004 14.0129 5.82004 14.4029C5.19077 14.5751 4.53013 14.5991 3.89004 14.4729C4.16165 15.3254 4.69358 16.0713 5.41106 16.6058C6.12854 17.1404 6.99549 17.4366 7.89004 17.4529C6.37367 18.6533 4.49404 19.3022 2.56004 19.2929C2.22004 19.2929 1.88004 19.2729 1.54004 19.2329C3.44004 20.4529 5.70004 21.1629 8.12004 21.1629C16 21.1629 20.33 14.6229 20.33 8.9529C20.33 8.7629 20.33 8.5829 20.32 8.3929C21.16 7.7929 21.88 7.0329 22.46 6.1629Z" fill="#4B4737"/>
</svg>
