<svg width="48" height="48" viewBox="0 0 48 48" fill="none" xmlns="http://www.w3.org/2000/svg">
<path d="M27.2202 24.4856C27.2081 25.1192 27.0082 25.7349 26.6458 26.2547C26.2834 26.7745 25.7748 27.1751 25.1845 27.4055C24.5942 27.636 23.9488 27.686 23.3301 27.5492C22.7113 27.4124 22.1471 27.095 21.709 26.6372C21.2708 26.1794 20.9785 25.6018 20.869 24.9776C20.7594 24.3535 20.8377 23.7109 21.0938 23.1312C21.3499 22.5516 21.7724 22.0611 22.3076 21.7218C22.8428 21.3826 23.4667 21.2099 24.1002 21.2256C24.942 21.2568 25.7386 21.6146 26.321 22.2232C26.9035 22.8317 27.226 23.6432 27.2202 24.4856Z" fill="#807D74"/>
<path d="M29.5259 14.4658H18.6759C17.6023 14.4658 16.5727 14.8923 15.8136 15.6515C15.0544 16.4106 14.6279 17.4402 14.6279 18.5138V29.6078C14.6279 30.1394 14.7326 30.6658 14.9361 31.1569C15.1395 31.648 15.4377 32.0943 15.8136 32.4702C16.1895 32.8461 16.6357 33.1443 17.1268 33.3477C17.618 33.5511 18.1443 33.6558 18.6759 33.6558H29.5259C30.0575 33.6558 30.5839 33.5511 31.075 33.3477C31.5662 33.1443 32.0124 32.8461 32.3883 32.4702C32.7642 32.0943 33.0624 31.648 33.2658 31.1569C33.4692 30.6658 33.5739 30.1394 33.5739 29.6078V18.5338C33.576 18.0007 33.4729 17.4724 33.2705 16.9792C33.068 16.486 32.7703 16.0376 32.3942 15.6597C32.0182 15.2818 31.5712 14.9818 31.079 14.7769C30.5868 14.5721 30.0591 14.4663 29.5259 14.4658ZM24.0999 29.9118C23.0259 29.9361 21.9689 29.6397 21.064 29.0606C20.1591 28.4816 19.4472 27.646 19.0193 26.6605C18.5914 25.6751 18.4668 24.5845 18.6614 23.5279C18.856 22.4714 19.361 21.4967 20.1119 20.7285C20.8629 19.9602 21.8257 19.433 22.8776 19.2144C23.9294 18.9957 25.0226 19.0954 26.0175 19.5007C27.0125 19.9061 27.8641 20.5987 28.4637 21.4901C29.0633 22.3816 29.3837 23.4315 29.3839 24.5058C29.3921 25.2078 29.2619 25.9045 29.0008 26.5561C28.7396 27.2077 28.3526 27.8015 27.8619 28.3036C27.3712 28.8056 26.7864 29.206 26.1409 29.482C25.4954 29.7579 24.8019 29.904 24.0999 29.9118ZM29.9719 19.1018C29.84 19.1018 29.7093 19.0755 29.5876 19.0244C29.466 18.9733 29.3557 18.8985 29.2633 18.8042C29.1709 18.71 29.0983 18.5983 29.0496 18.4756C29.001 18.3529 28.9773 18.2218 28.9799 18.0898C28.9799 17.8214 29.0865 17.564 29.2763 17.3742C29.4661 17.1844 29.7235 17.0778 29.9919 17.0778C30.2603 17.0778 30.5177 17.1844 30.7075 17.3742C30.8973 17.564 31.0039 17.8214 31.0039 18.0898C31.0079 18.2327 30.981 18.3747 30.9249 18.5062C30.8689 18.6377 30.7851 18.7556 30.6793 18.8517C30.5735 18.9478 30.4482 19.0199 30.312 19.0631C30.1757 19.1062 30.0318 19.1195 29.8899 19.1018H29.9719Z" fill="#807D74"/>
<path d="M24.0998 4.00025C18.7954 3.97373 13.6978 6.05543 9.92834 9.7874C6.15886 13.5194 4.02628 18.5959 3.99976 23.9002C3.97324 29.2046 6.05494 34.3022 9.78692 38.0717C13.5189 41.8412 18.5954 43.9737 23.8998 44.0003C26.5262 44.0134 29.1295 43.5091 31.561 42.5161C33.9926 41.5231 36.2047 40.061 38.0712 38.2131C39.9376 36.3652 41.4219 34.1678 42.4391 31.7463C43.4563 29.3248 43.9866 26.7267 43.9998 24.1003C44.0129 21.4738 43.5086 18.8705 42.5156 16.439C41.5227 14.0074 40.0605 11.7953 38.2126 9.92883C36.3647 8.06237 34.1673 6.57815 31.7458 5.56093C29.3243 4.5437 26.7262 4.01338 24.0998 4.00025ZM36.2458 29.4042C36.2513 30.3015 36.0788 31.191 35.738 32.021C35.3973 32.8511 34.8952 33.6053 34.2608 34.2399C33.6264 34.8744 32.8724 35.3768 32.0424 35.7177C31.2124 36.0587 30.323 36.2316 29.4258 36.2263H18.7778C17.8806 36.2313 16.9914 36.0583 16.1616 35.7174C15.3318 35.3765 14.5778 34.8743 13.9434 34.2401C13.3089 33.6058 12.8065 32.852 12.4654 32.0223C12.1242 31.1925 11.951 30.3034 11.9558 29.4062V18.7563C11.9502 17.859 12.1228 16.9695 12.4635 16.1395C12.8042 15.3094 13.3064 14.5552 13.9407 13.9207C14.5751 13.2861 15.3292 12.7837 16.1591 12.4428C16.9891 12.1018 17.8785 11.9289 18.7758 11.9343H29.4258C30.3229 11.9289 31.2121 12.1017 32.0419 12.4426C32.8718 12.7834 33.6257 13.2856 34.2601 13.9199C34.8944 14.5543 35.3966 15.3082 35.7374 16.1381C36.0783 16.9679 36.2511 17.8572 36.2458 18.7543V29.4042Z" fill="#807D74"/>
</svg>
