<svg width="41" height="40" viewBox="0 0 41 40" fill="none" xmlns="http://www.w3.org/2000/svg">
<g clip-path="url(#clip0_66_228)">
<path d="M20.5 0C31.8336 0 41 8.94286 41 20C41 31.0571 31.8336 40 20.5 40C9.16643 40 0 31.0571 0 20C0 8.94286 9.16643 0 20.5 0ZM16.7514 30.5429C25.83 30.5429 30.8086 23.2 30.8086 16.8286V16.2C31.775 15.5143 32.6243 14.6571 33.2686 13.6857C32.39 14.0571 31.4236 14.3143 30.4279 14.4571C31.4529 13.8571 32.2436 12.9143 32.595 11.8C31.6286 12.3429 30.5743 12.7429 29.4614 12.9714C28.5536 12.0286 27.265 11.4571 25.8593 11.4571C23.1357 11.4571 20.91 13.6286 20.91 16.2857C20.91 16.6571 20.9393 17.0286 21.0564 17.3714C16.9564 17.1714 13.2957 15.2571 10.865 12.3429C10.455 13.0571 10.1914 13.8857 10.1914 14.7714C10.1914 16.4286 11.07 17.9143 12.3879 18.7714C11.5679 18.7714 10.8064 18.5429 10.1621 18.1714V18.2286C10.1621 20.5714 11.8607 22.5143 14.1157 22.9714C13.7057 23.0857 13.2664 23.1429 12.8271 23.1429C12.505 23.1429 12.2121 23.1143 11.89 23.0571C12.505 24.9714 14.35 26.3714 16.4879 26.4C14.7893 27.6857 12.6514 28.4571 10.3379 28.4571C9.92786 28.4571 9.54714 28.4571 9.16643 28.4C11.3336 29.7714 13.94 30.5714 16.7221 30.5714" fill="#807D74"/>
</g>
<defs>
<clipPath id="clip0_66_228">
<rect width="41" height="40" fill="white"/>
</clipPath>
</defs>
</svg>
