<svg width="37" height="28" viewBox="0 0 37 28" fill="none" xmlns="http://www.w3.org/2000/svg">
<path d="M14.081 19.1771L22.6573 13.6689L14.081 8.16067V19.1771ZM33.1834 4.80067C33.3982 5.66362 33.547 6.82034 33.6461 8.28919C33.7618 9.75804 33.8114 11.0249 33.8114 12.1266L33.9105 13.6689C33.9105 17.6898 33.6461 20.6459 33.1834 22.5371C32.7703 24.1895 31.8119 25.2544 30.3247 25.7135C29.548 25.9521 28.1269 26.1174 25.9457 26.2276C23.7975 26.3561 21.831 26.4112 20.0133 26.4112L17.3859 26.5213C10.4621 26.5213 6.1492 26.2275 4.44716 25.7135C2.95995 25.2544 2.00152 24.1895 1.58841 22.5371C1.37359 21.6741 1.22487 20.5174 1.12572 19.0485C1.01005 17.5797 0.960476 16.3128 0.960476 15.2112L0.861328 13.6689C0.861328 9.64788 1.12572 6.69182 1.58841 4.80067C2.00152 3.14821 2.95995 2.08329 4.44716 1.62428C5.22382 1.38559 6.64493 1.22034 8.82618 1.11018C10.9744 0.981652 12.9408 0.92657 14.7585 0.92657L17.3859 0.816406C24.3097 0.816406 28.6226 1.11018 30.3247 1.62428C31.8119 2.08329 32.7703 3.14821 33.1834 4.80067Z" fill="#4B4737"/>
</svg>
