<svg width="24" height="25" viewBox="0 0 24 25" fill="none" xmlns="http://www.w3.org/2000/svg">
<path fill-rule="evenodd" clip-rule="evenodd" d="M12 7.1629C10.6739 7.1629 9.40215 7.68969 8.46447 8.62737C7.52678 9.56505 7 10.8368 7 12.1629C7 13.489 7.52678 14.7608 8.46447 15.6984C9.40215 16.6361 10.6739 17.1629 12 17.1629C13.3261 17.1629 14.5979 16.6361 15.5355 15.6984C16.4732 14.7608 17 13.489 17 12.1629C17 10.8368 16.4732 9.56505 15.5355 8.62737C14.5979 7.68969 13.3261 7.1629 12 7.1629ZM9 12.1629C9 12.9586 9.31607 13.7216 9.87868 14.2842C10.4413 14.8468 11.2044 15.1629 12 15.1629C12.7956 15.1629 13.5587 14.8468 14.1213 14.2842C14.6839 13.7216 15 12.9586 15 12.1629C15 11.3673 14.6839 10.6042 14.1213 10.0416C13.5587 9.47897 12.7956 9.1629 12 9.1629C11.2044 9.1629 10.4413 9.47897 9.87868 10.0416C9.31607 10.6042 9 11.3673 9 12.1629Z" fill="#4B4737"/>
<path d="M18 5.1629C17.7348 5.1629 17.4804 5.26826 17.2929 5.4558C17.1054 5.64333 17 5.89769 17 6.1629C17 6.42812 17.1054 6.68247 17.2929 6.87001C17.4804 7.05755 17.7348 7.1629 18 7.1629C18.2652 7.1629 18.5196 7.05755 18.7071 6.87001C18.8946 6.68247 19 6.42812 19 6.1629C19 5.89769 18.8946 5.64333 18.7071 5.4558C18.5196 5.26826 18.2652 5.1629 18 5.1629Z" fill="#4B4737"/>
<path fill-rule="evenodd" clip-rule="evenodd" d="M5 1.1629C3.93913 1.1629 2.92172 1.58433 2.17157 2.33448C1.42143 3.08462 1 4.10204 1 5.1629V19.1629C1 20.2238 1.42143 21.2412 2.17157 21.9913C2.92172 22.7415 3.93913 23.1629 5 23.1629H19C20.0609 23.1629 21.0783 22.7415 21.8284 21.9913C22.5786 21.2412 23 20.2238 23 19.1629V5.1629C23 4.10204 22.5786 3.08462 21.8284 2.33448C21.0783 1.58433 20.0609 1.1629 19 1.1629H5ZM19 3.1629H5C4.46957 3.1629 3.96086 3.37362 3.58579 3.74869C3.21071 4.12376 3 4.63247 3 5.1629V19.1629C3 19.6933 3.21071 20.202 3.58579 20.5771C3.96086 20.9522 4.46957 21.1629 5 21.1629H19C19.5304 21.1629 20.0391 20.9522 20.4142 20.5771C20.7893 20.202 21 19.6933 21 19.1629V5.1629C21 4.63247 20.7893 4.12376 20.4142 3.74869C20.0391 3.37362 19.5304 3.1629 19 3.1629Z" fill="#4B4737"/>
</svg>
